<svg id="Warstwa_1" data-name="Warstwa 1" xmlns="http://www.w3.org/2000/svg" viewBox="0 0 1280 244.53"><defs><style>.cls-1{fill:#e73c23;}</style></defs><path d="M335.33,165.47v4.25H306v27.72h-4.43V135.36h41.8v4.16H306v25.95Z"/><path d="M356.05,172.38v25.06h-4.43V135.36H376.5c7.53,0,17.89,6.73,17.89,18.6,0,10.09-9.3,18.42-17.18,18.42h-.53l18.15,25.06h-5.66l-18-25.06Zm0-4.25h21.16c5.49,0,12.66-6.47,12.66-14.17,0-9-7.79-14.35-13.37-14.35H356.05Z"/><path d="M398.37,166.27a31.35,31.35,0,1,1,62.69,0c0,17.62-14.07,31.88-31.34,31.88S398.37,183.89,398.37,166.27Zm4.43,0c0,15.23,12,27.62,26.92,27.62s27-12.39,27-27.62-12.05-27.54-27-27.54S402.8,151.13,402.8,166.27Z"/><path d="M475.58,197.44h-4.51l.08-62.08h4l45.07,54.11V135.36h4.52v62.16H521.1L475.58,142.8Z"/><path d="M561.47,197.44H557l.09-57.83H531.28v-4.25h55.34v4.25H561.47Z"/><path d="M633.37,135.36v4.16H595.74v25.95H625.4v4.25H595.74v23.47h38.6v4.25h-43l.09-62.08Z"/><path d="M649.39,197.44h-4.51l.09-62.08h4L694,189.47V135.36h4.52v62.16h-3.63L649.39,142.8Z"/><path d="M709.16,135.36h22.93c10.72,0,28.87,7.8,28.87,31.26,0,22.49-18.68,30.82-28.87,30.82H709.16Zm4.43,57.83h18.5c8.6,0,24.44-7.18,24.44-26.57,0-20.28-15.4-27.1-24.44-27.1h-18.5Z"/><path d="M796.9,135.36h22.94c10.72,0,28.87,7.8,28.87,31.26,0,22.49-18.69,30.82-28.87,30.82H796.9Zm4.43,57.83h18.51c8.59,0,24.44-7.18,24.44-26.57,0-20.28-15.41-27.1-24.44-27.1H801.33Z"/><path d="M900.33,135.36v4.16H862.69v25.95h29.67v4.25H862.69v23.47H901.3v4.25h-43l.09-62.08Z"/><path d="M903.16,135.36h5l22.23,54.55,22.32-54.55h4.69l-25.59,62.16h-3.19Z"/><path d="M1006.22,135.36v4.16H968.59v25.95h29.67v4.25H968.59v23.47h38.61v4.25h-43l.09-62.08Z"/><path d="M1020,135.36v57.83h40v4.25h-44.45V135.36Z"/><path d="M1060.85,166.27a31.35,31.35,0,1,1,62.7,0c0,17.62-14.08,31.88-31.35,31.88S1060.85,183.89,1060.85,166.27Zm4.43,0c0,15.23,12,27.62,26.92,27.62s27-12.39,27-27.62-12-27.54-27-27.54S1065.28,151.13,1065.28,166.27Z"/><path d="M1137.27,197.44h-4.34l-.09-62.08h22.84c7.36,0,19.93,5.4,19.93,19.66,0,12.13-12.66,19.4-19.93,19.4h-18.41Zm0-27.28h18.41c5.41,0,15.41-5.93,15.41-15.14,0-11.07-9.65-15.41-15.41-15.41h-18.41Z"/><path d="M1226,135.36v4.16h-37.64v25.95H1218v4.25h-29.67v23.47H1227v4.25h-43l.09-62.08Z"/><path d="M1241.22,172.38v25.06h-4.43V135.36h24.88c7.53,0,17.89,6.73,17.89,18.6,0,10.09-9.3,18.42-17.18,18.42h-.53L1280,197.44h-5.67l-18-25.06Zm0-4.25h21.16c5.49,0,12.66-6.47,12.66-14.17,0-9-7.79-14.35-13.37-14.35h-20.45Z"/><path d="M302.6,46.44h49.34V60.91H318.28c0,4.62-.1,9.24-.1,14h28.54V88.94H318.28v13.37h34.77v14.57H302.5Z"/><path d="M390.83,116.88H364.9V46.44h28.74c19.79,0,32.25,16.68,32.25,35.17C425.89,101.7,412.13,116.88,390.83,116.88Zm-.91-56.37h-9.34c0,14.26-.1,27.93-.1,42.2h9.14c13.57,0,21.81-9.65,21.81-20.7C411.43,70.45,405.7,60.51,389.92,60.51Z"/><path d="M464.48,116.88H448.6V89.75l-22.91-40.6V46.44h15.48l16.48,29.14,15.47-29.14h14.37v2.61l-23,41.3Z"/><path d="M530.8,116.88H514.92v-56H492.11V46.44h61.4V60.91H530.8Z"/><path d="M593.5,103.71H565.56l-5.32,13.17H544.87l29.24-70.64h12l27.94,70.64H598.32ZM570.89,89.45h17.28l-8.54-22.11Z"/><path d="M679.91,117.78c-10,0-16.47-2.81-26.82-10l4.82-13.66c9.85,5.82,16.08,8.84,21,8.84,6.93,0,15.17-2.51,15.17-8.14,0-6.13-10.45-6.83-14.87-7.33-11.45-1.41-26.43-4-26.43-20.5,0-18.59,17.49-22.31,27.64-22.31,9.34,0,17.78,3,26.93,9.55l-4.63,12.76c-7.83-5.13-15.37-7.54-22.3-7.54-10.76,0-13.27,4.32-13.27,6.93,0,5,11.56,6.13,14.67,6.13,10.55,1.11,26.83,3.12,26.83,22.31C708.65,113.46,690.87,117.78,679.91,117.78Z"/><path d="M770.45,102.91v14H716.39V106.63l34.87-46.32h-34V46.44h54.57V56.49l-34.47,46.42Z"/><path d="M825.82,103.71H797.88l-5.32,13.17H777.18l29.24-70.64h12.06l27.93,70.64H830.64ZM803.21,89.45h17.28L812,67.34Z"/><path d="M875.66,90.35h-5v26.53H855.16l-.1-70.44h33.36c14,0,21.3,8.44,21.3,21.3,0,10.45-8.14,18.69-17.18,21.3l18.69,24.32v3.52h-15ZM886,60.91H870.63V75.28c5.23,0,14.57.1,14.57.1,6.73,0,9.35-3.72,9.35-7.44S892.74,60.91,886,60.91Z"/><path d="M952.53,118.79c-17.39,0-35.17-12.46-35.17-37.08,0-25.42,17.78-37.28,35.17-37.28S987.69,57.59,987.69,82C987.69,106.63,969.91,118.79,952.53,118.79Zm0-59.09c-13.37,0-20.3,9.85-20.3,22.31,0,11.76,6.93,21.5,20.3,21.5s20.29-9.44,20.29-21.5C972.82,69.75,965.79,59.7,952.53,59.7Z"/><path d="M1048.19,116.88l-13.27-46c-4.32,15-7.83,30.94-12.16,46h-11.35L989,49.05V46.44h16l13.16,41.4c3.52-13.67,6.43-27.74,10.05-41.4h13.36l12.36,42.2c4.12-14,7.74-28.23,11.86-42.2H1080v2.61l-21.6,67.83Z"/><path d="M1110.59,117.78c-10,0-16.48-2.81-26.83-10l4.82-13.66c9.85,5.82,16.08,8.84,21,8.84,6.94,0,15.17-2.51,15.17-8.14,0-6.13-10.45-6.83-14.87-7.33-11.45-1.41-26.42-4-26.42-20.5,0-18.59,17.48-22.31,27.63-22.31,9.34,0,17.78,3,26.93,9.55l-4.62,12.76c-7.84-5.13-15.38-7.54-22.31-7.54-10.75,0-13.26,4.32-13.26,6.93,0,5,11.55,6.13,14.67,6.13,10.55,1.11,26.83,3.12,26.83,22.31C1139.33,113.46,1121.54,117.78,1110.59,117.78Z"/><path d="M1171.78,86.33c-2.31,2.51-4.52,5-6.83,7.44v23.11h-15.78l.1-70.44H1165V73.37c8.14-8.94,16.38-18.09,24.52-26.93h16v2.21l-23.31,26c8.14,13.07,16.68,26.63,24.72,39.79v2.42h-17.18Z"/><path d="M1259.4,103.71h-27.93l-5.33,13.17h-15.37L1240,46.24h12.06L1280,116.88h-15.78Zm-22.61-14.26h17.29l-8.55-22.11Z"/><path d="M244.53,244.53H0V0H244.53ZM13.58,231H231V13.58H13.58Z"/><path d="M66.81,46.05h44.5V59.1H81c0,4.17-.09,8.34-.09,12.6H106.6V84.39H81v12h31.36v13.15H66.72Z"/><path d="M155.2,195.29c-9.07,0-14.87-2.54-24.2-9.07l4.35-12.32c8.88,5.25,14.5,8,18.94,8,6.26,0,13.69-2.26,13.69-7.34,0-5.53-9.43-6.16-13.42-6.62-10.33-1.27-23.83-3.62-23.83-18.49,0-16.76,15.77-20.12,24.92-20.12,8.43,0,16,2.72,24.29,8.61l-4.17,11.51c-7.07-4.62-13.86-6.79-20.12-6.79-9.7,0-12,3.89-12,6.25,0,4.53,10.42,5.53,13.23,5.53,9.52,1,24.2,2.81,24.2,20.12C181.12,191.39,165.08,195.29,155.2,195.29Z"/><path class="cls-1" d="M63.41,156.22l45.83-26.06v14.72L79.72,162c9.93,5.85,19.68,11.79,29.52,17.64v14.81L63.41,167.3Z"/><path class="cls-1" d="M181.12,82.74,136,109.43V94.87c9.68-5.76,19.28-11.6,29-17.36L136,60.68V46.2l45.09,25.64Z"/></svg>