<svg id="Warstwa_1" data-name="Warstwa 1" xmlns="http://www.w3.org/2000/svg" viewBox="0 0 1280 1280"><defs><style>.cls-1{fill:#e73c23;}</style></defs><path d="M1280,1280H0V0H1280ZM71.08,1208.92H1208.92V71.08H71.08Z"/><path d="M349.73,241.05H582.68v68.32H423.75c0,21.83-.48,43.65-.48,65.95H558v66.42H423.75v63.11H587.91v68.79H349.26Z"/><path d="M812.4,1022.24c-47.44,0-77.81-13.28-126.68-47.44l22.78-64.52C755,937.79,784.41,952,807.66,952c32.74,0,71.64-11.86,71.64-38.43,0-28.94-49.34-32.26-70.22-34.63C755,872.32,684.3,860,684.3,782.17c0-87.77,82.56-105.33,130.48-105.33,44.12,0,84,14.24,127.15,45.07L920.1,782.17c-37-24.19-72.59-35.58-105.32-35.58-50.77,0-62.64,20.4-62.64,32.74,0,23.72,54.57,28.94,69.28,28.94,49.82,5.21,126.67,14.71,126.67,105.32C948.09,1001.84,864.12,1022.24,812.4,1022.24Z"/><path class="cls-1" d="M331.91,817.76l239.9-136.42v77L417.29,847.92c52,30.63,103,61.71,154.52,92.34v77.49l-239.9-142Z"/><path class="cls-1" d="M948.09,433.14l-236,139.69V496.6c50.67-30.14,100.89-60.72,152-90.86l-152-88.1V241.85l236,134.22Z"/></svg>